<?xml version="1.0" encoding="UTF-8"?><svg id="Layer_1" xmlns="http://www.w3.org/2000/svg" viewBox="0 0 31.06 19.17"><path d="m4.38,19.17H1c-.35,0-.6-.08-.76-.25-.16-.17-.24-.43-.24-.79V3.5c0-.2.03-.36.08-.5.05-.14.13-.25.23-.34L3.11.2c.07-.06.17-.11.29-.15.12-.04.26-.06.4-.06h9.71c.35,0,.6.08.76.25.16.17.24.43.24.79v2.69c0,.2-.03.36-.08.5-.05.14-.13.25-.23.34l-2.44,2.1c.33,0,.58.08.74.25.16.17.24.43.24.79v2.71c0,.2-.03.36-.08.5-.05.14-.13.25-.23.34l-2.83,2.44c-.06.06-.15.11-.27.16-.12.05-.26.07-.4.07h-.76v1.76c0,.2-.03.36-.08.5-.05.14-.13.25-.23.34l-2.83,2.44c-.06.06-.15.11-.27.16-.12.05-.26.07-.4.07Zm2.81-2.69c.28,0,.48-.06.6-.19.12-.13.19-.33.19-.62v-4.45h3.79c.28,0,.48-.06.6-.19.12-.13.19-.33.19-.62v-2.71c0-.29-.06-.49-.19-.62-.12-.13-.32-.19-.6-.19h-3.79v-2.35h5.55c.28,0,.48-.06.6-.19.12-.13.19-.33.19-.62V1.04c0-.29-.06-.49-.19-.62-.12-.13-.32-.19-.6-.19H3.81c-.28,0-.48.06-.6.19-.12.13-.19.34-.19.62v14.63c0,.29.06.49.19.62.12.13.32.19.6.19h3.38Zm-1.79-2.03V2.26h6.95v.23h-6.73v6.46h4.97v.23h-4.97v5.28h-.22Z" fill="#f66"/><path d="m23.26,19.17h-3.53c-.35,0-.6-.08-.76-.25-.16-.17-.24-.43-.24-.79V7.27h-2.98c-.35,0-.6-.08-.76-.25-.16-.17-.24-.43-.24-.79v-2.73c0-.2.03-.36.08-.5.05-.14.13-.25.23-.34L17.86.2c.07-.06.17-.11.29-.15.12-.04.26-.06.4-.06h11.5c.35,0,.6.08.76.25.16.17.24.43.24.79v2.73c0,.2-.03.36-.08.5-.05.14-.13.25-.23.34l-2.83,2.44c-.06.06-.15.11-.27.16-.12.05-.26.07-.4.07h-.17v8.4c0,.2-.03.36-.08.5-.05.14-.13.25-.23.34l-2.83,2.44c-.06.06-.15.11-.27.16-.12.05-.26.07-.4.07Zm2.81-2.69c.28,0,.48-.06.6-.19.12-.13.19-.33.19-.62V4.58h3.2c.28,0,.48-.06.6-.19.12-.13.19-.33.19-.62V1.04c0-.29-.06-.49-.19-.62-.12-.13-.32-.19-.6-.19h-11.5c-.28,0-.48.06-.6.19-.12.13-.19.34-.19.62v2.73c0,.29.06.49.19.62.12.13.32.19.6.19h3.2v11.09c0,.29.06.49.19.62.12.13.32.19.6.19h3.53Zm-1.87-2.03V2.48h-4.47v-.23h9.15v.23h-4.47v11.97h-.22Z" fill="#f66"/></svg>